<?xml version="1.0" standalone="no"?><!DOCTYPE svg PUBLIC "-//W3C//DTD SVG 1.1//EN" "http://www.w3.org/Graphics/SVG/1.1/DTD/svg11.dtd"><svg xmlns:xlink="http://www.w3.org/1999/xlink" version="1.1" class="highcharts-root" style="font-family:&quot;Lucida Grande&quot;, &quot;Lucida Sans Unicode&quot;, Arial, Helvetica, sans-serif;font-size:12px;" xmlns="http://www.w3.org/2000/svg" width="600" height="400" viewBox="0 0 600 400" aria-label="Interactive chart" aria-hidden="false"><desc aria-hidden="true">Created with Highcharts 9.1.2</desc><defs aria-hidden="true"><clipPath id="highcharts-47btde5-19-"><rect x="0" y="0" width="580" height="324" fill="none"></rect></clipPath><pattern id="highcharts-pattern-1-184b27d2164a54c6-export" patternUnits="userSpaceOnUse" patternContentUnits="userSpaceOnUse" width="5" height="5" x="0" y="0" patternTransform="scale(1.4 1.4)"><path d="M 0 0 L 5 5 M 4.5 -0.5 L 5.5 0.5 M -0.5 4.5 L 0.5 5.5" stroke="#49a65e" stroke-width="2" fill="none"></path></pattern><pattern id="highcharts-pattern-1-1749050536532962-export" patternUnits="userSpaceOnUse" patternContentUnits="userSpaceOnUse" width="5" height="5" x="0" y="0" patternTransform="scale(1.4 1.4)"><path d="M 0 5 L 5 0 M -0.5 0.5 L 0.5 -0.5 M 4.5 5.5 L 5.5 4.5" stroke="#5f98cf" stroke-width="2" fill="none"></path></pattern><pattern id="highcharts-pattern-1-1747407db49deba20-export" patternUnits="userSpaceOnUse" patternContentUnits="userSpaceOnUse" width="5" height="5" x="0" y="0" patternTransform="scale(1.4 1.4)"><path d="M 2 0 L 2 5 M 4 0 L 4 5" stroke="#f45b5b" stroke-width="2" fill="none"></path></pattern><pattern id="highcharts-pattern-1-525b1b0b4c67ded4-export" patternUnits="userSpaceOnUse" patternContentUnits="userSpaceOnUse" width="5" height="5" x="0" y="0" patternTransform="scale(1.4 1.4)"><path d="M 0 2 L 5 2 M 0 4 L 5 4" stroke="#434348" stroke-width="2" fill="none"></path></pattern><pattern id="highcharts-pattern-1-1d45c86f395db6e8-export" patternUnits="userSpaceOnUse" patternContentUnits="userSpaceOnUse" width="5" height="5" x="0" y="0" patternTransform="scale(1.4 1.4)"><path d="M 0 1.5 L 2.5 1.5 L 2.5 0 M 2.5 5 L 2.5 3.5 L 5 3.5" stroke="#708090" stroke-width="2" fill="none"></path></pattern></defs><rect fill="#ffffff" class="highcharts-background" x="0" y="0" width="600" height="400" rx="0" ry="0" aria-hidden="true"></rect><rect fill="none" class="highcharts-plot-background" x="10" y="61" width="580" height="324" aria-hidden="true"></rect><rect fill="none" class="highcharts-plot-border" data-z-index="1" x="10" y="61" width="580" height="324" aria-hidden="true"></rect><g class="highcharts-series-group" data-z-index="3" aria-hidden="false"><g class="highcharts-series highcharts-series-0 highcharts-pie-series" data-z-index="0.1" opacity="1" transform="translate(10,61) scale(1 1)" aria-hidden="false" aria-label=""><path fill="url(#highcharts-pattern-1-184b27d2164a54c6-export)" d="M 289.97230044429745 42.000002820828655 A 136 136 0 0 1 365.86797610623785 290.87183085935715 L 290 178 A 0 0 0 0 0 290 178 Z" transform="translate(0,0)" stroke="#ffffff" stroke-width="3" opacity="1" stroke-linejoin="round" class="highcharts-point highcharts-color-0" tabindex="-1" role="img" aria-label="1. NVDA, 40.6%. This is the most used desktop screen reader" style="outline: 0px;"></path><path fill="url(#highcharts-pattern-1-1749050536532962-export)" d="M 365.75506636020555 290.947642386908 A 136 136 0 0 1 162.59424769648643 130.42086297571439 L 290 178 A 0 0 0 0 0 290 178 Z" transform="translate(0,0)" stroke="#ffffff" stroke-width="3" opacity="1" stroke-linejoin="round" class="highcharts-point highcharts-color-1" tabindex="-1" role="img" aria-label="2. JAWS, 40.1%." style="outline: 0px;"></path><path fill="url(#highcharts-pattern-1-1747407db49deba20-export)" d="M 162.6418905284517 130.2934810342117 A 136 136 0 0 1 236.61489215197852 52.91590724614454 L 290 178 A 0 0 0 0 0 290 178 Z" transform="translate(0,0)" stroke="#ffffff" stroke-width="3" opacity="1" stroke-linejoin="round" class="highcharts-point highcharts-color-2" tabindex="-1" role="img" aria-label="3. VoiceOver, 12.9%." style="outline: 0px;"></path><path fill="url(#highcharts-pattern-1-525b1b0b4c67ded4-export)" d="M 236.74000291643677 52.86258468923518 A 136 136 0 0 1 252.75702902743382 47.19877250906018 L 290 178 A 0 0 0 0 0 290 178 Z" transform="translate(0,0)" stroke="#ffffff" stroke-width="3" opacity="1" stroke-linejoin="round" class="highcharts-point highcharts-color-3" tabindex="-1" role="img" aria-label="4. ZoomText, 2%." style="outline: 0px;"></path><path fill="url(#highcharts-pattern-1-1d45c86f395db6e8-export)" d="M 252.88784885460854 47.161594944903044 A 136 136 0 0 1 289.8110987284223 42.00013119010151 L 290 178 A 0 0 0 0 0 290 178 Z" transform="translate(0,0)" stroke="#ffffff" stroke-width="3" opacity="1" stroke-linejoin="round" class="highcharts-point highcharts-color-4" tabindex="-1" role="img" aria-label="5. Other, 4.4%." style="outline: 0px;"></path></g><g class="highcharts-markers highcharts-series-0 highcharts-pie-series" data-z-index="0.1" opacity="1" transform="translate(10,61) scale(1 1)" aria-hidden="true"></g></g><text x="300" text-anchor="middle" class="highcharts-title" data-z-index="4" style="color:#333333;font-size:18px;fill:#333333;" y="24" aria-hidden="true">Primary desktop/laptop screen readers</text><text x="300" text-anchor="middle" class="highcharts-subtitle" data-z-index="4" style="color:#666666;fill:#666666;" y="45" aria-hidden="true">Source: WebAIM. Click on point to visit official website</text><text x="10" text-anchor="start" class="highcharts-caption" data-z-index="4" style="color:#666666;fill:#666666;" y="397" aria-hidden="true"></text><g class="highcharts-data-labels highcharts-series-0 highcharts-pie-series" data-z-index="6" opacity="1" transform="translate(10,61) scale(1 1)" aria-hidden="true"><path fill="none" class="highcharts-data-label-connector highcharts-color-0" stroke="#777" stroke-width="1" d="M 453.81420055876583 129.68799630650685 C 448.81420055876583 129.68799630650685 431.59338363070685 134.92664730941573 425.8531113213539 136.67286431038536 L 420.1128390120009 138.419081311355"></path><path fill="none" class="highcharts-data-label-connector highcharts-color-1" stroke="#777" stroke-width="1" d="M 182.02575817589178 308.20101966094614 C 187.02575817589178 308.20101966094614 198.19163981946974 294.08283680614477 201.91360036732908 289.3767758545443 L 205.63556091518842 284.6707149029438"></path><path fill="none" class="highcharts-data-label-connector highcharts-color-2" stroke="#777" stroke-width="1" d="M 165.06754928634388 63.229763153435805 C 170.06754928634388 63.229763153435805 183.07227285770415 75.67472859462953 187.40718071482425 79.82305040836076 L 191.74208857194435 83.97137222209199"></path><path fill="none" class="highcharts-data-label-connector highcharts-color-3" stroke="#777" stroke-width="1" d="M 200.696975143237 35 C 205.696975143237 35 240.74270741059792 38.43740068785608 242.73962467773583 44.09534390321327 L 244.73654194487375 49.753287118570455"></path><path fill="none" class="highcharts-data-label-connector highcharts-color-4" stroke="#777" stroke-width="1" d="M 262.1268117463502 12 C 267.1268117463502 12 269.6070369786735 31.411708996895612 270.4337787227813 37.35447755107552 L 271.26052046688915 43.297246105255425"></path><g class="highcharts-label highcharts-data-label highcharts-data-label-color-0" data-z-index="1" style="cursor:pointer;" transform="translate(459,120)"><text x="5" data-z-index="1" y="16" style="color:#000000;font-size:11px;font-weight:bold;fill:#000000;"><tspan class="highcharts-text-outline" fill="#FFFFFF" stroke="#FFFFFF" stroke-width="2px" stroke-linejoin="round" style=""><tspan style="font-weight:bold;">NVDA</tspan>: 40.6 %<tspan x="5" y="16">​</tspan></tspan><tspan style="font-weight:bold;">NVDA</tspan>: 40.6 %</text></g><g class="highcharts-label highcharts-data-label highcharts-data-label-color-1" data-z-index="1" style="cursor:pointer;" transform="translate(95,298)"><text x="5" data-z-index="1" y="16" style="color:#000000;font-size:11px;font-weight:bold;fill:#000000;"><tspan class="highcharts-text-outline" fill="#FFFFFF" stroke="#FFFFFF" stroke-width="2px" stroke-linejoin="round" style=""><tspan style="font-weight:bold;">JAWS</tspan>: 40.1 %<tspan x="5" y="16">​</tspan></tspan><tspan style="font-weight:bold;">JAWS</tspan>: 40.1 %</text></g><g class="highcharts-label highcharts-data-label highcharts-data-label-color-2" data-z-index="1" style="cursor:pointer;" transform="translate(49,53)"><text x="5" data-z-index="1" y="16" style="color:#000000;font-size:11px;font-weight:bold;fill:#000000;"><tspan class="highcharts-text-outline" fill="#FFFFFF" stroke="#FFFFFF" stroke-width="2px" stroke-linejoin="round" style=""><tspan style="font-weight:bold;">VoiceOver</tspan>: 12.9 %<tspan x="5" y="16">​</tspan></tspan><tspan style="font-weight:bold;">VoiceOver</tspan>: 12.9 %</text></g><g class="highcharts-label highcharts-data-label highcharts-data-label-color-3" data-z-index="1" style="cursor:pointer;" transform="translate(93,25)"><text x="5" data-z-index="1" y="16" style="color:#000000;font-size:11px;font-weight:bold;fill:#000000;"><tspan class="highcharts-text-outline" fill="#FFFFFF" stroke="#FFFFFF" stroke-width="2px" stroke-linejoin="round" style=""><tspan style="font-weight:bold;">ZoomText</tspan>: 2.0 %<tspan x="5" y="16">​</tspan></tspan><tspan style="font-weight:bold;">ZoomText</tspan>: 2.0 %</text></g><g class="highcharts-label highcharts-data-label highcharts-data-label-color-4" data-z-index="1" style="cursor:pointer;" transform="translate(179,2)"><text x="5" data-z-index="1" y="16" style="color:#000000;font-size:11px;font-weight:bold;fill:#000000;"><tspan class="highcharts-text-outline" fill="#FFFFFF" stroke="#FFFFFF" stroke-width="2px" stroke-linejoin="round" style=""><tspan style="font-weight:bold;">Other</tspan>: 4.4 %<tspan x="5" y="16">​</tspan></tspan><tspan style="font-weight:bold;">Other</tspan>: 4.4 %</text></g></g><g class="highcharts-legend highcharts-no-tooltip" data-z-index="7" aria-hidden="true"><rect fill="none" class="highcharts-legend-box" rx="0" ry="0" x="0" y="0" width="8" height="8" visibility="hidden"></rect><g data-z-index="1"><g></g></g></g><text x="590" class="highcharts-credits" text-anchor="end" data-z-index="8" style="cursor:pointer;color:#999999;font-size:9px;fill:#999999;" y="395" aria-label="Chart credits: Highcharts.com" aria-hidden="false">Highcharts.com</text></svg>